<?xml version="1.0" encoding="UTF-8"?>
<svg width="120px" height="120px" viewBox="0 0 120 120" version="1.1" xmlns="http://www.w3.org/2000/svg" xmlns:xlink="http://www.w3.org/1999/xlink">
    <title>Gilles23</title>
    <style>
      svg:hover .Z {
        animation: 3s fade linear infinite;
        opacity: 0;
        transform-origin: left bottom;
      }
      svg:hover #Z3 {
        animation-delay: 1.5s;
      }
      svg:hover #Z2 {
        animation-delay: 1s;
      }
      @keyframes fade {
        0% {
          opacity: 0;
          transform: scale(0.8);
        }
        50% {
          opacity: 1;
          transform: scale(1);
        }
        100% {
          opacity: 0;
          transform: scale(1.1);
        }
      }

    </style>
    <defs>
        <linearGradient x1="50%" y1="-2.48949813e-15%" x2="50%" y2="100%" id="linearGradient-1">
            <stop stop-color="#07064F" offset="0%"></stop>
            <stop stop-color="#06079F" offset="100%"></stop>
        </linearGradient>
        <linearGradient x1="50%" y1="0%" x2="50%" y2="100%" id="linearGradient-2">
            <stop stop-color="#B6B6B6" offset="0%"></stop>
            <stop stop-color="#7E7E7E" offset="100%"></stop>
        </linearGradient>
        <path d="M20,31 C28.2842712,31 35,24.2842712 35,16 C35,7.71572875 28.2842712,1 20,1 C11.7157288,1 5,7.71572875 5,16 C5,19.060473 5.91656157,21.9068717 7.49016363,24.2796748 C7.82418656,24.7833413 8.18781379,25.265669 8.57856324,25.7241757 C11.3298765,28.9525764 15.4258375,31 20,31 Z" id="path-3"></path>
        <filter x="-50%" y="-50%" width="200%" height="200%" filterUnits="objectBoundingBox" id="filter-4">
            <feGaussianBlur stdDeviation="1.5" in="SourceAlpha" result="shadowBlurInner1"></feGaussianBlur>
            <feOffset dx="0" dy="-2" in="shadowBlurInner1" result="shadowOffsetInner1"></feOffset>
            <feComposite in="shadowOffsetInner1" in2="SourceAlpha" operator="arithmetic" k2="-1" k3="1" result="shadowInnerInner1"></feComposite>
            <feColorMatrix values="0 0 0 0 0   0 0 0 0 0   0 0 0 0 0  0 0 0 0.048290308 0" type="matrix" in="shadowInnerInner1"></feColorMatrix>
        </filter>
        <path d="M0.546748619,10.6888995 C3.34943349,4.39104131 9.66192542,0 17,0 C26.9411255,0 35,8.0588745 35,18 C35,27.6768736 27.3638682,35.570233 17.7886499,35.9830331 C22.4130859,33.3377091 25.5294118,28.3563124 25.5294118,22.6470588 C25.5294118,14.1678635 18.6556659,7.29411765 10.1764706,7.29411765 C6.52996928,7.29411765 3.18038841,8.56538515 0.546748619,10.6888995 Z" id="path-5"></path>
        <filter x="-50%" y="-50%" width="200%" height="200%" filterUnits="objectBoundingBox" id="filter-6">
            <feGaussianBlur stdDeviation="1" in="SourceAlpha" result="shadowBlurInner1"></feGaussianBlur>
            <feOffset dx="0" dy="1" in="shadowBlurInner1" result="shadowOffsetInner1"></feOffset>
            <feComposite in="shadowOffsetInner1" in2="SourceAlpha" operator="arithmetic" k2="-1" k3="1" result="shadowInnerInner1"></feComposite>
            <feColorMatrix values="0 0 0 0 1   0 0 0 0 1   0 0 0 0 1  0 0 0 0.249858469 0" type="matrix" in="shadowInnerInner1"></feColorMatrix>
        </filter>
        <linearGradient x1="50%" y1="0%" x2="50%" y2="100%" id="linearGradient-7">
            <stop stop-color="#000000" stop-opacity="0.22339221" offset="0%"></stop>
            <stop stop-color="#000000" stop-opacity="0" offset="100%"></stop>
        </linearGradient>
        <ellipse id="path-8" cx="20" cy="16" rx="11" ry="11"></ellipse>
        <filter x="-50%" y="-50%" width="200%" height="200%" filterUnits="objectBoundingBox" id="filter-9">
            <feGaussianBlur stdDeviation="0.5" in="SourceAlpha" result="shadowBlurInner1"></feGaussianBlur>
            <feOffset dx="0" dy="1" in="shadowBlurInner1" result="shadowOffsetInner1"></feOffset>
            <feComposite in="shadowOffsetInner1" in2="SourceAlpha" operator="arithmetic" k2="-1" k3="1" result="shadowInnerInner1"></feComposite>
            <feColorMatrix values="0 0 0 0 0   0 0 0 0 0   0 0 0 0 0  0 0 0 0.0606034873 0" type="matrix" in="shadowInnerInner1"></feColorMatrix>
        </filter>
        <path d="M20,31 C28.2842712,31 35,24.2842712 35,16 C35,7.71572875 28.2842712,1 20,1 C11.7157288,1 5,7.71572875 5,16 C5,19.060473 5.91656157,21.9068717 7.49016363,24.2796748 C7.82418656,24.7833413 8.18781379,25.265669 8.57856324,25.7241757 C11.3298765,28.9525764 15.4258375,31 20,31 Z" id="path-10"></path>
        <filter x="-50%" y="-50%" width="200%" height="200%" filterUnits="objectBoundingBox" id="filter-11">
            <feGaussianBlur stdDeviation="1.5" in="SourceAlpha" result="shadowBlurInner1"></feGaussianBlur>
            <feOffset dx="0" dy="-2" in="shadowBlurInner1" result="shadowOffsetInner1"></feOffset>
            <feComposite in="shadowOffsetInner1" in2="SourceAlpha" operator="arithmetic" k2="-1" k3="1" result="shadowInnerInner1"></feComposite>
            <feColorMatrix values="0 0 0 0 0   0 0 0 0 0   0 0 0 0 0  0 0 0 0.048290308 0" type="matrix" in="shadowInnerInner1"></feColorMatrix>
        </filter>
        <path d="M0.546748619,10.6888995 C3.34943349,4.39104131 9.66192542,0 17,0 C26.9411255,0 35,8.0588745 35,18 C35,27.6768736 27.3638682,35.570233 17.7886499,35.9830331 C22.4130859,33.3377091 25.5294118,28.3563124 25.5294118,22.6470588 C25.5294118,14.1678635 18.6556659,7.29411765 10.1764706,7.29411765 C6.52996928,7.29411765 3.18038841,8.56538515 0.546748619,10.6888995 Z" id="path-12"></path>
        <filter x="-50%" y="-50%" width="200%" height="200%" filterUnits="objectBoundingBox" id="filter-13">
            <feGaussianBlur stdDeviation="1" in="SourceAlpha" result="shadowBlurInner1"></feGaussianBlur>
            <feOffset dx="0" dy="1" in="shadowBlurInner1" result="shadowOffsetInner1"></feOffset>
            <feComposite in="shadowOffsetInner1" in2="SourceAlpha" operator="arithmetic" k2="-1" k3="1" result="shadowInnerInner1"></feComposite>
            <feColorMatrix values="0 0 0 0 1   0 0 0 0 1   0 0 0 0 1  0 0 0 0.249858469 0" type="matrix" in="shadowInnerInner1"></feColorMatrix>
        </filter>
        <ellipse id="path-14" cx="20" cy="16" rx="11" ry="11"></ellipse>
        <filter x="-50%" y="-50%" width="200%" height="200%" filterUnits="objectBoundingBox" id="filter-15">
            <feGaussianBlur stdDeviation="0.5" in="SourceAlpha" result="shadowBlurInner1"></feGaussianBlur>
            <feOffset dx="0" dy="1" in="shadowBlurInner1" result="shadowOffsetInner1"></feOffset>
            <feComposite in="shadowOffsetInner1" in2="SourceAlpha" operator="arithmetic" k2="-1" k3="1" result="shadowInnerInner1"></feComposite>
            <feColorMatrix values="0 0 0 0 0   0 0 0 0 0   0 0 0 0 0  0 0 0 0.0606034873 0" type="matrix" in="shadowInnerInner1"></feColorMatrix>
        </filter>
        <path d="M0.546748619,10.6888995 C3.34943349,4.39104131 9.66192542,0 17,0 C26.9411255,0 35,8.0588745 35,18 C35,27.6768736 27.3638682,35.570233 17.7886499,35.9830331 C22.4130859,33.3377091 25.5294118,28.3563124 25.5294118,22.6470588 C25.5294118,14.1678635 18.6556659,7.29411765 10.1764706,7.29411765 C6.52996928,7.29411765 3.18038841,8.56538515 0.546748619,10.6888995 Z" id="path-16"></path>
        <filter x="-50%" y="-50%" width="200%" height="200%" filterUnits="objectBoundingBox" id="filter-17">
            <feGaussianBlur stdDeviation="1" in="SourceAlpha" result="shadowBlurInner1"></feGaussianBlur>
            <feOffset dx="0" dy="1" in="shadowBlurInner1" result="shadowOffsetInner1"></feOffset>
            <feComposite in="shadowOffsetInner1" in2="SourceAlpha" operator="arithmetic" k2="-1" k3="1" result="shadowInnerInner1"></feComposite>
            <feColorMatrix values="0 0 0 0 1   0 0 0 0 1   0 0 0 0 1  0 0 0 0.249858469 0" type="matrix" in="shadowInnerInner1"></feColorMatrix>
        </filter>
        <linearGradient x1="50%" y1="0%" x2="50%" y2="100%" id="linearGradient-18">
            <stop stop-color="#D1D1D1" offset="0%"></stop>
            <stop stop-color="#9C9C9C" offset="100%"></stop>
        </linearGradient>
        <path d="M17.7215423,34.3635588 C19.5624895,25.1588229 28.6117799,16.8572537 37.9434653,15.8203997 L41.1017012,15.4694846 C44.9418314,15.0428035 51.1784918,15.043979 55.008043,15.4694846 L58.1662788,15.8203997 C67.4935913,16.8567678 76.5465705,25.155402 78.3882018,34.3635588 L81.3276869,49.0609844 C83.3861545,59.353322 76.8433729,69.9162342 66.7174679,72.6529653 L64.4721351,73.259812 C55.4051311,75.7103536 40.700625,75.7092757 31.6376091,73.259812 L29.3922763,72.6529653 C19.2648076,69.9158116 12.7230173,59.3561842 14.7820572,49.0609844 L17.7215423,34.3635588 Z" id="path-19"></path>
        <filter x="-50%" y="-50%" width="200%" height="200%" filterUnits="objectBoundingBox" id="filter-20">
            <feOffset dx="0" dy="4" in="SourceAlpha" result="shadowOffsetOuter1"></feOffset>
            <feGaussianBlur stdDeviation="4.5" in="shadowOffsetOuter1" result="shadowBlurOuter1"></feGaussianBlur>
            <feColorMatrix values="0 0 0 0 0   0 0 0 0 0   0 0 0 0 0  0 0 0 0.196841033 0" type="matrix" in="shadowBlurOuter1"></feColorMatrix>
        </filter>
        <filter x="-50%" y="-50%" width="200%" height="200%" filterUnits="objectBoundingBox" id="filter-21">
            <feGaussianBlur stdDeviation="1" in="SourceAlpha" result="shadowBlurInner1"></feGaussianBlur>
            <feOffset dx="0" dy="-4" in="shadowBlurInner1" result="shadowOffsetInner1"></feOffset>
            <feComposite in="shadowOffsetInner1" in2="SourceAlpha" operator="arithmetic" k2="-1" k3="1" result="shadowInnerInner1"></feComposite>
            <feColorMatrix values="0 0 0 0 0   0 0 0 0 0   0 0 0 0 0  0 0 0 0.0457144475 0" type="matrix" in="shadowInnerInner1" result="shadowMatrixInner1"></feColorMatrix>
            <feOffset dx="0" dy="1" in="SourceAlpha" result="shadowOffsetInner2"></feOffset>
            <feComposite in="shadowOffsetInner2" in2="SourceAlpha" operator="arithmetic" k2="-1" k3="1" result="shadowInnerInner2"></feComposite>
            <feColorMatrix values="0 0 0 0 1   0 0 0 0 1   0 0 0 0 1  0 0 0 0.322803442 0" type="matrix" in="shadowInnerInner2" result="shadowMatrixInner2"></feColorMatrix>
            <feMerge>
                <feMergeNode in="shadowMatrixInner1"></feMergeNode>
                <feMergeNode in="shadowMatrixInner2"></feMergeNode>
            </feMerge>
        </filter>
        <polygon id="path-22" points="63.94 7.83 51.972 7.83 51.972 11.416 57.67 11.416 51.664 23.912 51.664 24 64.16 24 64.16 20.414 57.956 20.414 63.94 7.918"></polygon>
        <filter x="-50%" y="-50%" width="200%" height="200%" filterUnits="objectBoundingBox" id="filter-23">
            <feOffset dx="0" dy="2" in="SourceAlpha" result="shadowOffsetOuter1"></feOffset>
            <feGaussianBlur stdDeviation="0.5" in="shadowOffsetOuter1" result="shadowBlurOuter1"></feGaussianBlur>
            <feColorMatrix values="0 0 0 0 0   0 0 0 0 0   0 0 0 0 0  0 0 0 0.0555366848 0" type="matrix" in="shadowBlurOuter1"></feColorMatrix>
        </filter>
        <path d="M0.0483924234,0.916666667 C0.0165659644,1.10637161 0,1.30125121 0,1.5 C0,3.43299662 1.56700338,5 3.5,5 C5.43299662,5 7,3.43299662 7,1.5 C7,1.30125121 6.98343404,1.10637161 6.95160758,0.916666667 C6.67389536,2.09904723 5.23424783,3 3.5,3 C1.76575217,3 0.326104644,2.09904723 0.0483924234,0.916666667 Z" id="path-24"></path>
        <filter x="-50%" y="-50%" width="200%" height="200%" filterUnits="objectBoundingBox" id="filter-25">
            <feOffset dx="0" dy="1" in="SourceAlpha" result="shadowOffsetOuter1"></feOffset>
            <feColorMatrix values="0 0 0 0 1   0 0 0 0 1   0 0 0 0 1  0 0 0 0.274513134 0" type="matrix" in="shadowOffsetOuter1"></feColorMatrix>
        </filter>
        <path d="M33.0483924,0.916666667 C33.016566,1.10637161 33,1.30125121 33,1.5 C33,3.43299662 34.5670034,5 36.5,5 C38.4329966,5 40,3.43299662 40,1.5 C40,1.30125121 39.983434,1.10637161 39.9516076,0.916666667 C39.6738954,2.09904723 38.2342478,3 36.5,3 C34.7657522,3 33.3261046,2.09904723 33.0483924,0.916666667 Z" id="path-26"></path>
        <filter x="-50%" y="-50%" width="200%" height="200%" filterUnits="objectBoundingBox" id="filter-27">
            <feOffset dx="0" dy="1" in="SourceAlpha" result="shadowOffsetOuter1"></feOffset>
            <feColorMatrix values="0 0 0 0 1   0 0 0 0 1   0 0 0 0 1  0 0 0 0.274513134 0" type="matrix" in="shadowOffsetOuter1"></feColorMatrix>
        </filter>
        <linearGradient x1="50%" y1="0%" x2="50%" y2="100%" id="linearGradient-28">
            <stop stop-color="#3A3A3A" offset="0%"></stop>
            <stop stop-color="#000000" offset="100%"></stop>
        </linearGradient>
        <rect id="path-29" x="39" y="38" width="18" height="25" rx="9"></rect>
        <filter x="-50%" y="-50%" width="200%" height="200%" filterUnits="objectBoundingBox" id="filter-30">
            <feOffset dx="0" dy="1" in="SourceAlpha" result="shadowOffsetInner1"></feOffset>
            <feComposite in="shadowOffsetInner1" in2="SourceAlpha" operator="arithmetic" k2="-1" k3="1" result="shadowInnerInner1"></feComposite>
            <feColorMatrix values="0 0 0 0 1   0 0 0 0 1   0 0 0 0 1  0 0 0 0.139379529 0" type="matrix" in="shadowInnerInner1"></feColorMatrix>
        </filter>
        <rect id="path-31" x="42" y="39" width="12" height="25" rx="6"></rect>
        <filter x="-50%" y="-50%" width="200%" height="200%" filterUnits="objectBoundingBox" id="filter-32">
            <feOffset dx="0" dy="1" in="SourceAlpha" result="shadowOffsetInner1"></feOffset>
            <feComposite in="shadowOffsetInner1" in2="SourceAlpha" operator="arithmetic" k2="-1" k3="1" result="shadowInnerInner1"></feComposite>
            <feColorMatrix values="0 0 0 0 1   0 0 0 0 1   0 0 0 0 1  0 0 0 0.139379529 0" type="matrix" in="shadowInnerInner1"></feColorMatrix>
        </filter>
    </defs>
    <g id="Page-1" stroke="none" stroke-width="1" fill="none" fill-rule="evenodd">
        <g id="home" transform="translate(-250.000000, -248.000000)">
            <g id="content" transform="translate(250.000000, 248.000000)">
                <g id="icon">
                    <rect id="bg" fill="url(#linearGradient-1)" x="0" y="0" width="120" height="120" rx="30"></rect>
                    <path d="M35,24 C30.0294373,24 26,19.9705628 26,15 C26,19.9705628 21.9705627,24 17,24 C21.9705627,24 26,28.0294373 26,33 C26,28.0294373 30.0294373,24 35,24 Z" id="star" fill="#FFFFFF"></path>
                    <path d="M44,31.5 C41.5147186,31.5 39.5,29.4852814 39.5,27 C39.5,29.4852814 37.4852814,31.5 35,31.5 C37.4852814,31.5 39.5,33.5147186 39.5,36 C39.5,33.5147186 41.5147186,31.5 44,31.5 Z" id="star" fill="#FFFFFF"></path>
                    <g id="face" transform="translate(12.000000, 23.000000)">
                        <g id="ear" transform="translate(0.000000, 17.000000)">
                            <g id="bg">
                                <use fill="url(#linearGradient-2)" fill-rule="evenodd" xlink:href="#path-3"></use>
                                <use fill="black" fill-opacity="1" filter="url(#filter-4)" xlink:href="#path-3"></use>
                            </g>
                            <path d="M3.12378751,18 C3.04208666,17.3448115 3,16.6773207 3,16 C3,7.163444 10.163444,0 19,0 C27.836556,0 35,7.163444 35,16 C35,16.6773207 34.9579133,17.3448115 34.8762125,18 C33.8920163,10.1073768 27.1592353,4 19,4 C10.8407647,4 4.10798369,10.1073768 3.12378751,18 Z" id="bg" fill="url(#linearGradient-2)"></path>
                            <g id="bg">
                                <use fill="url(#linearGradient-2)" fill-rule="evenodd" xlink:href="#path-5"></use>
                                <use fill="black" fill-opacity="1" filter="url(#filter-6)" xlink:href="#path-5"></use>
                            </g>
                            <g id="bg">
                                <use fill="url(#linearGradient-7)" fill-rule="evenodd" xlink:href="#path-8"></use>
                                <use fill="black" fill-opacity="1" filter="url(#filter-9)" xlink:href="#path-8"></use>
                            </g>
                        </g>
                        <g id="ear" transform="translate(78.500000, 35.000000) scale(-1, 1) translate(-78.500000, -35.000000) translate(61.000000, 17.000000)">
                            <g id="bg">
                                <use fill="url(#linearGradient-2)" fill-rule="evenodd" xlink:href="#path-10"></use>
                                <use fill="black" fill-opacity="1" filter="url(#filter-11)" xlink:href="#path-10"></use>
                            </g>
                            <path d="M3.12378751,18 C3.04208666,17.3448115 3,16.6773207 3,16 C3,7.163444 10.163444,0 19,0 C27.836556,0 35,7.163444 35,16 C35,16.6773207 34.9579133,17.3448115 34.8762125,18 C33.8920163,10.1073768 27.1592353,4 19,4 C10.8407647,4 4.10798369,10.1073768 3.12378751,18 Z" id="bg" fill="url(#linearGradient-2)"></path>
                            <g id="bg">
                                <use fill="url(#linearGradient-2)" fill-rule="evenodd" xlink:href="#path-12"></use>
                                <use fill="black" fill-opacity="1" filter="url(#filter-13)" xlink:href="#path-12"></use>
                            </g>
                            <g id="bg">
                                <use fill="url(#linearGradient-7)" fill-rule="evenodd" xlink:href="#path-14"></use>
                                <use fill="black" fill-opacity="1" filter="url(#filter-15)" xlink:href="#path-14"></use>
                            </g>
                        </g>
                        <g id="hair" transform="translate(39.500000, 28.000000) rotate(77.000000) translate(-39.500000, -28.000000) translate(22.000000, 10.000000)">
                            <path d="M3.12378751,18 C3.04208666,17.3448115 3,16.6773207 3,16 C3,7.163444 10.163444,0 19,0 C27.836556,0 35,7.163444 35,16 C35,16.6773207 34.9579133,17.3448115 34.8762125,18 C33.8920163,10.1073768 27.1592353,4 19,4 C10.8407647,4 4.10798369,10.1073768 3.12378751,18 Z" id="bg" fill="url(#linearGradient-2)"></path>
                            <g id="bg">
                                <use fill="url(#linearGradient-2)" fill-rule="evenodd" xlink:href="#path-16"></use>
                                <use fill="black" fill-opacity="1" filter="url(#filter-17)" xlink:href="#path-16"></use>
                            </g>
                        </g>
                        <g id="bg">
                            <use fill="black" fill-opacity="1" filter="url(#filter-20)" xlink:href="#path-19"></use>
                            <use fill="url(#linearGradient-18)" fill-rule="evenodd" xlink:href="#path-19"></use>
                            <use fill="black" fill-opacity="1" filter="url(#filter-21)" xlink:href="#path-19"></use>
                        </g>
                        <g class="Z">
                            <use fill="black" fill-opacity="1" filter="url(#filter-23)" xlink:href="#path-22"></use>
                            <use fill="#FFFFFF" fill-rule="evenodd" xlink:href="#path-22"></use>
                        </g>
                        <polygon class="Z" id="Z2" fill="#FFFFFF" points="73.32 3.24 64.616 3.24 64.616 5.848 68.76 5.848 64.392 14.936 64.392 15 73.48 15 73.48 12.392 68.968 12.392 73.32 3.304"></polygon>
                        <polygon class="Z" id="Z3" fill="#FFFFFF" points="82.51 0.445 75.438 0.445 75.438 2.564 78.805 2.564 75.256 9.948 75.256 10 82.64 10 82.64 7.881 78.974 7.881 82.51 0.497"></polygon>
                        <g id="eye" transform="translate(28.000000, 42.000000)">
                            <g id="Combined-Shape">
                                <use fill="black" fill-opacity="1" filter="url(#filter-25)" xlink:href="#path-24"></use>
                                <use fill="#000000" fill-rule="evenodd" xlink:href="#path-24"></use>
                            </g>
                            <g id="Combined-Shape">
                                <use fill="black" fill-opacity="1" filter="url(#filter-27)" xlink:href="#path-26"></use>
                                <use fill="#000000" fill-rule="evenodd" xlink:href="#path-26"></use>
                            </g>
                        </g>
                        <rect id="nose" fill-opacity="0.100000001" fill="#000000" x="38" y="41" width="20" height="27" rx="10"></rect>
                        <g id="nose">
                            <use fill="url(#linearGradient-28)" fill-rule="evenodd" xlink:href="#path-29"></use>
                            <use fill="black" fill-opacity="1" filter="url(#filter-30)" xlink:href="#path-29"></use>
                        </g>
                        <g id="nose">
                            <use fill="url(#linearGradient-28)" fill-rule="evenodd" xlink:href="#path-31"></use>
                            <use fill="black" fill-opacity="1" filter="url(#filter-32)" xlink:href="#path-31"></use>
                        </g>
                    </g>
                </g>
            </g>
        </g>
    </g>
</svg>
